<mxfile host="app.diagrams.net" modified="2023-12-17T08:10:05.724Z" agent="Mozilla/5.0 (Windows NT 10.0; Win64; x64) AppleWebKit/537.36 (KHTML, like Gecko) Chrome/120.0.0.0 Safari/537.36" etag="qpnYcjAd1EiQzJQQAtjs" version="22.1.8" type="github">
  <diagram id="C5RBs43oDa-KdzZeNtuy" name="Page-1">
    <mxGraphModel dx="794" dy="446" grid="0" gridSize="10" guides="1" tooltips="1" connect="1" arrows="1" fold="1" page="1" pageScale="1" pageWidth="827" pageHeight="1169" math="0" shadow="1">
      <root>
        <mxCell id="WIyWlLk6GJQsqaUBKTNV-0" />
        <mxCell id="WIyWlLk6GJQsqaUBKTNV-1" parent="WIyWlLk6GJQsqaUBKTNV-0" />
        <mxCell id="0wCFsdbysDWYnxFJeVAg-2" value="" style="edgeStyle=orthogonalEdgeStyle;rounded=1;orthogonalLoop=1;jettySize=auto;html=1;" edge="1" parent="WIyWlLk6GJQsqaUBKTNV-1" source="0wCFsdbysDWYnxFJeVAg-0">
          <mxGeometry relative="1" as="geometry">
            <mxPoint x="125" y="100" as="targetPoint" />
          </mxGeometry>
        </mxCell>
        <mxCell id="0wCFsdbysDWYnxFJeVAg-0" value="START" style="rounded=1;whiteSpace=wrap;html=1;" vertex="1" parent="WIyWlLk6GJQsqaUBKTNV-1">
          <mxGeometry x="90" y="40" width="70" height="20" as="geometry" />
        </mxCell>
        <mxCell id="0wCFsdbysDWYnxFJeVAg-4" value="" style="edgeStyle=orthogonalEdgeStyle;rounded=1;orthogonalLoop=1;jettySize=auto;html=1;" edge="1" parent="WIyWlLk6GJQsqaUBKTNV-1" target="0wCFsdbysDWYnxFJeVAg-3">
          <mxGeometry relative="1" as="geometry">
            <mxPoint x="125" y="150" as="sourcePoint" />
          </mxGeometry>
        </mxCell>
        <mxCell id="0wCFsdbysDWYnxFJeVAg-9" value="Check count of args" style="edgeLabel;html=1;align=center;verticalAlign=middle;resizable=0;points=[];rounded=1;" vertex="1" connectable="0" parent="0wCFsdbysDWYnxFJeVAg-4">
          <mxGeometry x="-0.24" y="1" relative="1" as="geometry">
            <mxPoint as="offset" />
          </mxGeometry>
        </mxCell>
        <mxCell id="0wCFsdbysDWYnxFJeVAg-7" value="" style="edgeStyle=orthogonalEdgeStyle;rounded=1;orthogonalLoop=1;jettySize=auto;html=1;" edge="1" parent="WIyWlLk6GJQsqaUBKTNV-1" source="0wCFsdbysDWYnxFJeVAg-3" target="0wCFsdbysDWYnxFJeVAg-5">
          <mxGeometry relative="1" as="geometry" />
        </mxCell>
        <mxCell id="0wCFsdbysDWYnxFJeVAg-10" value="No" style="edgeLabel;html=1;align=center;verticalAlign=middle;resizable=0;points=[];rounded=1;" vertex="1" connectable="0" parent="0wCFsdbysDWYnxFJeVAg-7">
          <mxGeometry y="-1" relative="1" as="geometry">
            <mxPoint as="offset" />
          </mxGeometry>
        </mxCell>
        <mxCell id="0wCFsdbysDWYnxFJeVAg-13" value="" style="edgeStyle=orthogonalEdgeStyle;rounded=1;orthogonalLoop=1;jettySize=auto;html=1;" edge="1" parent="WIyWlLk6GJQsqaUBKTNV-1" source="0wCFsdbysDWYnxFJeVAg-3" target="0wCFsdbysDWYnxFJeVAg-12">
          <mxGeometry relative="1" as="geometry" />
        </mxCell>
        <mxCell id="0wCFsdbysDWYnxFJeVAg-33" value="Yes" style="edgeLabel;html=1;align=center;verticalAlign=middle;resizable=0;points=[];rounded=1;" vertex="1" connectable="0" parent="0wCFsdbysDWYnxFJeVAg-13">
          <mxGeometry x="0.4095" relative="1" as="geometry">
            <mxPoint as="offset" />
          </mxGeometry>
        </mxCell>
        <mxCell id="0wCFsdbysDWYnxFJeVAg-3" value="args != 2" style="rhombus;whiteSpace=wrap;html=1;rounded=1;" vertex="1" parent="WIyWlLk6GJQsqaUBKTNV-1">
          <mxGeometry x="90" y="200" width="70" height="70" as="geometry" />
        </mxCell>
        <mxCell id="0wCFsdbysDWYnxFJeVAg-5" value="Print usage error and exit failure" style="rounded=1;whiteSpace=wrap;html=1;" vertex="1" parent="WIyWlLk6GJQsqaUBKTNV-1">
          <mxGeometry x="205" y="210" width="75" height="50" as="geometry" />
        </mxCell>
        <mxCell id="0wCFsdbysDWYnxFJeVAg-16" value="" style="edgeStyle=orthogonalEdgeStyle;rounded=1;orthogonalLoop=1;jettySize=auto;html=1;" edge="1" parent="WIyWlLk6GJQsqaUBKTNV-1" source="0wCFsdbysDWYnxFJeVAg-12" target="0wCFsdbysDWYnxFJeVAg-14">
          <mxGeometry relative="1" as="geometry" />
        </mxCell>
        <mxCell id="0wCFsdbysDWYnxFJeVAg-19" value="No" style="edgeLabel;html=1;align=center;verticalAlign=middle;resizable=0;points=[];rounded=1;" vertex="1" connectable="0" parent="0wCFsdbysDWYnxFJeVAg-16">
          <mxGeometry x="-0.2" y="2" relative="1" as="geometry">
            <mxPoint as="offset" />
          </mxGeometry>
        </mxCell>
        <mxCell id="0wCFsdbysDWYnxFJeVAg-17" value="" style="edgeStyle=orthogonalEdgeStyle;rounded=1;orthogonalLoop=1;jettySize=auto;html=1;" edge="1" parent="WIyWlLk6GJQsqaUBKTNV-1" source="0wCFsdbysDWYnxFJeVAg-12" target="0wCFsdbysDWYnxFJeVAg-31">
          <mxGeometry relative="1" as="geometry">
            <mxPoint x="125" y="410" as="targetPoint" />
          </mxGeometry>
        </mxCell>
        <mxCell id="0wCFsdbysDWYnxFJeVAg-18" value="Yes" style="edgeLabel;html=1;align=center;verticalAlign=middle;resizable=0;points=[];rounded=1;" vertex="1" connectable="0" parent="0wCFsdbysDWYnxFJeVAg-17">
          <mxGeometry x="0.28" relative="1" as="geometry">
            <mxPoint y="-6" as="offset" />
          </mxGeometry>
        </mxCell>
        <mxCell id="0wCFsdbysDWYnxFJeVAg-12" value="arg[1] is a valid file?" style="rhombus;whiteSpace=wrap;html=1;rounded=1;" vertex="1" parent="WIyWlLk6GJQsqaUBKTNV-1">
          <mxGeometry x="90" y="307.5" width="70" height="70" as="geometry" />
        </mxCell>
        <mxCell id="0wCFsdbysDWYnxFJeVAg-14" value="Print can&#39;t open file error and exit failure" style="rounded=1;whiteSpace=wrap;html=1;" vertex="1" parent="WIyWlLk6GJQsqaUBKTNV-1">
          <mxGeometry x="205" y="315" width="75" height="55" as="geometry" />
        </mxCell>
        <mxCell id="0wCFsdbysDWYnxFJeVAg-21" value="" style="edgeStyle=orthogonalEdgeStyle;rounded=1;orthogonalLoop=1;jettySize=auto;html=1;exitX=1;exitY=0.5;exitDx=0;exitDy=0;" edge="1" parent="WIyWlLk6GJQsqaUBKTNV-1">
          <mxGeometry relative="1" as="geometry">
            <mxPoint x="175" y="441" as="sourcePoint" />
            <mxPoint x="300" y="440" as="targetPoint" />
          </mxGeometry>
        </mxCell>
        <mxCell id="0wCFsdbysDWYnxFJeVAg-22" value="Read each&amp;nbsp;&lt;br&gt;line of the&lt;br&gt;file into a&lt;br&gt;linked list" style="edgeLabel;html=1;align=center;verticalAlign=middle;resizable=0;points=[];rounded=1;" vertex="1" connectable="0" parent="0wCFsdbysDWYnxFJeVAg-21">
          <mxGeometry x="-0.1265" relative="1" as="geometry">
            <mxPoint as="offset" />
          </mxGeometry>
        </mxCell>
        <mxCell id="0wCFsdbysDWYnxFJeVAg-27" value="" style="edgeStyle=orthogonalEdgeStyle;rounded=1;orthogonalLoop=1;jettySize=auto;html=1;" edge="1" parent="WIyWlLk6GJQsqaUBKTNV-1" source="0wCFsdbysDWYnxFJeVAg-20" target="0wCFsdbysDWYnxFJeVAg-25">
          <mxGeometry relative="1" as="geometry" />
        </mxCell>
        <mxCell id="0wCFsdbysDWYnxFJeVAg-29" value="No" style="edgeLabel;html=1;align=center;verticalAlign=middle;resizable=0;points=[];rounded=1;" vertex="1" connectable="0" parent="0wCFsdbysDWYnxFJeVAg-27">
          <mxGeometry x="-0.1059" y="-1" relative="1" as="geometry">
            <mxPoint as="offset" />
          </mxGeometry>
        </mxCell>
        <mxCell id="0wCFsdbysDWYnxFJeVAg-28" value="" style="edgeStyle=orthogonalEdgeStyle;rounded=1;orthogonalLoop=1;jettySize=auto;html=1;" edge="1" parent="WIyWlLk6GJQsqaUBKTNV-1" source="0wCFsdbysDWYnxFJeVAg-20">
          <mxGeometry relative="1" as="geometry">
            <mxPoint x="414" y="440.1" as="targetPoint" />
          </mxGeometry>
        </mxCell>
        <mxCell id="0wCFsdbysDWYnxFJeVAg-30" value="Yes" style="edgeLabel;html=1;align=center;verticalAlign=middle;resizable=0;points=[];rounded=1;" vertex="1" connectable="0" parent="0wCFsdbysDWYnxFJeVAg-28">
          <mxGeometry x="-0.15" y="1" relative="1" as="geometry">
            <mxPoint as="offset" />
          </mxGeometry>
        </mxCell>
        <mxCell id="0wCFsdbysDWYnxFJeVAg-20" value="Valid args?" style="rhombus;whiteSpace=wrap;html=1;rounded=1;" vertex="1" parent="WIyWlLk6GJQsqaUBKTNV-1">
          <mxGeometry x="300" y="405" width="60" height="70" as="geometry" />
        </mxCell>
        <mxCell id="0wCFsdbysDWYnxFJeVAg-25" value="Print invalid&lt;br&gt;args error and exit failure" style="rounded=1;whiteSpace=wrap;html=1;" vertex="1" parent="WIyWlLk6GJQsqaUBKTNV-1">
          <mxGeometry x="292.5" y="307.5" width="75" height="55" as="geometry" />
        </mxCell>
        <mxCell id="0wCFsdbysDWYnxFJeVAg-49" value="" style="edgeStyle=orthogonalEdgeStyle;rounded=1;orthogonalLoop=1;jettySize=auto;html=1;strokeColor=#23445D;" edge="1" parent="WIyWlLk6GJQsqaUBKTNV-1" target="0wCFsdbysDWYnxFJeVAg-48">
          <mxGeometry relative="1" as="geometry">
            <mxPoint x="480" y="440.1" as="sourcePoint" />
          </mxGeometry>
        </mxCell>
        <mxCell id="0wCFsdbysDWYnxFJeVAg-31" value="&lt;font style=&quot;font-size: 10px;&quot;&gt;Open the file in the read mode and parse the content&lt;/font&gt;" style="shape=document;whiteSpace=wrap;html=1;boundedLbl=1;rounded=1;" vertex="1" parent="WIyWlLk6GJQsqaUBKTNV-1">
          <mxGeometry x="75" y="412" width="100" height="58" as="geometry" />
        </mxCell>
        <mxCell id="0wCFsdbysDWYnxFJeVAg-32" value="Receive&amp;nbsp;&lt;br&gt;Command from&lt;br&gt;CLI" style="shape=parallelogram;perimeter=parallelogramPerimeter;whiteSpace=wrap;html=1;fixedSize=1;rounded=1;" vertex="1" parent="WIyWlLk6GJQsqaUBKTNV-1">
          <mxGeometry x="67.5" y="100" width="115" height="50" as="geometry" />
        </mxCell>
        <mxCell id="0wCFsdbysDWYnxFJeVAg-67" value="" style="edgeStyle=orthogonalEdgeStyle;rounded=1;orthogonalLoop=1;jettySize=auto;html=1;" edge="1" parent="WIyWlLk6GJQsqaUBKTNV-1" source="0wCFsdbysDWYnxFJeVAg-48" target="0wCFsdbysDWYnxFJeVAg-61">
          <mxGeometry relative="1" as="geometry" />
        </mxCell>
        <mxCell id="0wCFsdbysDWYnxFJeVAg-48" value="Compare opcode with predefined opcodes" style="rounded=1;whiteSpace=wrap;html=1;" vertex="1" parent="WIyWlLk6GJQsqaUBKTNV-1">
          <mxGeometry x="540" y="408.13" width="70" height="63.75" as="geometry" />
        </mxCell>
        <mxCell id="0wCFsdbysDWYnxFJeVAg-52" value="Extract the opcode and arg" style="shape=process;whiteSpace=wrap;html=1;backgroundOutline=1;rounded=1;" vertex="1" parent="WIyWlLk6GJQsqaUBKTNV-1">
          <mxGeometry x="414" y="410" width="80" height="60" as="geometry" />
        </mxCell>
        <mxCell id="0wCFsdbysDWYnxFJeVAg-53" value="Stored each opcode&lt;br&gt;and arg in separate&lt;br&gt;list node" style="strokeWidth=2;html=1;shape=mxgraph.flowchart.annotation_2;align=center;labelPosition=center;pointerEvents=1;verticalAlign=bottom;fontFamily=Helvetica;fontSize=12;flipH=1;flipV=1;direction=south;horizontal=1;verticalLabelPosition=top;dashed=1;dashPattern=1 1;rounded=1;" vertex="1" parent="WIyWlLk6GJQsqaUBKTNV-1">
          <mxGeometry x="404" y="360" width="100" height="50" as="geometry" />
        </mxCell>
        <mxCell id="0wCFsdbysDWYnxFJeVAg-59" value="Create an array of&lt;br&gt;instruction to hold&amp;nbsp;&lt;br&gt;all predefined&amp;nbsp;&lt;br&gt;opcodes and function&lt;br&gt;pointers, and for each&lt;br&gt;function pointer, create&lt;br&gt;a corresponding function." style="strokeWidth=2;html=1;shape=mxgraph.flowchart.annotation_2;align=left;labelPosition=right;pointerEvents=1;verticalAlign=middle;fontFamily=Helvetica;fontSize=12;flipH=1;flipV=1;direction=west;horizontal=1;verticalLabelPosition=middle;dashed=1;dashPattern=1 1;rounded=1;" vertex="1" parent="WIyWlLk6GJQsqaUBKTNV-1">
          <mxGeometry x="610" y="390" width="67" height="100" as="geometry" />
        </mxCell>
        <mxCell id="0wCFsdbysDWYnxFJeVAg-68" value="" style="edgeStyle=orthogonalEdgeStyle;rounded=1;orthogonalLoop=1;jettySize=auto;html=1;" edge="1" parent="WIyWlLk6GJQsqaUBKTNV-1" source="0wCFsdbysDWYnxFJeVAg-61" target="0wCFsdbysDWYnxFJeVAg-65">
          <mxGeometry relative="1" as="geometry" />
        </mxCell>
        <mxCell id="0wCFsdbysDWYnxFJeVAg-69" value="Yes" style="edgeLabel;html=1;align=center;verticalAlign=middle;resizable=0;points=[];" vertex="1" connectable="0" parent="0wCFsdbysDWYnxFJeVAg-68">
          <mxGeometry x="-0.2706" relative="1" as="geometry">
            <mxPoint x="1" as="offset" />
          </mxGeometry>
        </mxCell>
        <mxCell id="0wCFsdbysDWYnxFJeVAg-75" value="" style="edgeStyle=orthogonalEdgeStyle;rounded=1;orthogonalLoop=1;jettySize=auto;html=1;" edge="1" parent="WIyWlLk6GJQsqaUBKTNV-1" source="0wCFsdbysDWYnxFJeVAg-61" target="0wCFsdbysDWYnxFJeVAg-74">
          <mxGeometry relative="1" as="geometry" />
        </mxCell>
        <mxCell id="0wCFsdbysDWYnxFJeVAg-76" value="No" style="edgeLabel;html=1;align=center;verticalAlign=middle;resizable=0;points=[];" vertex="1" connectable="0" parent="0wCFsdbysDWYnxFJeVAg-75">
          <mxGeometry x="-0.2" y="1" relative="1" as="geometry">
            <mxPoint y="1" as="offset" />
          </mxGeometry>
        </mxCell>
        <mxCell id="0wCFsdbysDWYnxFJeVAg-61" value="Opcode&lt;br&gt;match?" style="rhombus;whiteSpace=wrap;html=1;rounded=1;" vertex="1" parent="WIyWlLk6GJQsqaUBKTNV-1">
          <mxGeometry x="542.5" y="307.5" width="65" height="70" as="geometry" />
        </mxCell>
        <mxCell id="0wCFsdbysDWYnxFJeVAg-79" value="" style="edgeStyle=orthogonalEdgeStyle;rounded=1;orthogonalLoop=1;jettySize=auto;html=1;" edge="1" parent="WIyWlLk6GJQsqaUBKTNV-1" source="0wCFsdbysDWYnxFJeVAg-65" target="0wCFsdbysDWYnxFJeVAg-77">
          <mxGeometry relative="1" as="geometry" />
        </mxCell>
        <mxCell id="0wCFsdbysDWYnxFJeVAg-65" value="Execute the function pointer and return result to stdout" style="shape=process;whiteSpace=wrap;html=1;backgroundOutline=1;rounded=1;" vertex="1" parent="WIyWlLk6GJQsqaUBKTNV-1">
          <mxGeometry x="517.5" y="205" width="115" height="60" as="geometry" />
        </mxCell>
        <mxCell id="0wCFsdbysDWYnxFJeVAg-78" value="" style="edgeStyle=orthogonalEdgeStyle;rounded=1;orthogonalLoop=1;jettySize=auto;html=1;" edge="1" parent="WIyWlLk6GJQsqaUBKTNV-1" source="0wCFsdbysDWYnxFJeVAg-74" target="0wCFsdbysDWYnxFJeVAg-77">
          <mxGeometry relative="1" as="geometry" />
        </mxCell>
        <mxCell id="0wCFsdbysDWYnxFJeVAg-74" value="Print no opcode found error and exit failure" style="rounded=1;whiteSpace=wrap;html=1;" vertex="1" parent="WIyWlLk6GJQsqaUBKTNV-1">
          <mxGeometry x="695" y="310.63" width="80" height="63.75" as="geometry" />
        </mxCell>
        <mxCell id="0wCFsdbysDWYnxFJeVAg-77" value="END" style="rounded=1;whiteSpace=wrap;html=1;" vertex="1" parent="WIyWlLk6GJQsqaUBKTNV-1">
          <mxGeometry x="700" y="225" width="70" height="20" as="geometry" />
        </mxCell>
      </root>
    </mxGraphModel>
  </diagram>
</mxfile>
